<?xml version="1.0" standalone="no"?>
<!DOCTYPE svg PUBLIC "-//W3C//DTD SVG 20010904//EN"
 "http://www.w3.org/TR/2001/REC-SVG-20010904/DTD/svg10.dtd">
<svg version="1.0" xmlns="http://www.w3.org/2000/svg"
 width="300.000000pt" height="300.000000pt" viewBox="0 0 300.000000 300.000000"
 preserveAspectRatio="xMidYMid meet">
<metadata>
Created by potrace 1.10, written by Peter Selinger 2001-2011
</metadata>
<g transform="translate(0.000000,300.000000) scale(0.100000,-0.100000)"
fill="#000000" stroke="none">
<path d="M1690 2392 c-48 -26 -69 -85 -50 -141 14 -43 13 -46 -105 -326 -7
-16 -48 -118 -91 -225 -197 -494 -296 -736 -309 -757 -15 -22 -19 -23 -143
-18 -258 10 -445 85 -518 210 -32 55 -39 84 -39 165 0 88 40 168 112 226 56
46 106 61 233 71 41 3 85 11 97 19 12 8 36 44 54 81 68 145 158 243 286 315
59 32 129 56 139 46 6 -6 -103 -286 -117 -303 -5 -5 -9 -15 -9 -23 0 -7 -13
-44 -29 -80 -15 -37 -41 -98 -56 -136 -16 -37 -36 -71 -44 -74 -32 -10 -81
-67 -87 -99 -3 -18 -1 -47 5 -65 10 -28 8 -36 -14 -68 -21 -30 -25 -44 -19
-77 4 -29 2 -42 -10 -52 -34 -29 -6 -91 41 -91 21 0 53 29 53 49 0 6 19 29 42
50 33 31 41 46 42 76 1 28 7 40 22 46 11 4 33 22 48 40 26 31 28 37 22 96 -7
63 -1 84 59 218 8 17 37 88 64 158 28 70 57 142 65 160 36 82 106 266 106 279
0 8 -9 23 -20 33 -47 42 -263 -7 -407 -92 -108 -65 -236 -207 -284 -318 -22
-50 -44 -62 -122 -69 -96 -9 -142 -23 -203 -62 -71 -45 -116 -94 -153 -168
-39 -80 -55 -162 -46 -243 4 -35 7 -66 7 -70 -1 -19 65 -128 102 -170 99 -113
283 -185 511 -199 109 -7 109 -7 85 -46 -77 -127 74 -255 181 -152 33 31 41
67 27 115 -9 30 -6 47 17 110 14 40 32 87 40 104 11 26 95 231 124 305 6 14
44 108 86 210 42 102 77 190 79 195 4 13 15 41 36 90 9 22 23 56 30 75 7 19
19 49 26 67 8 17 14 34 14 37 0 3 11 30 25 61 l24 56 35 -15 c96 -40 208 -152
271 -271 77 -146 101 -163 256 -174 66 -5 120 -15 144 -27 54 -25 104 -78 132
-141 48 -105 15 -268 -74 -370 -40 -44 -123 -90 -196 -107 -84 -20 -759 -22
-775 -3 -8 9 -1 36 24 97 20 47 39 96 44 110 23 70 118 293 131 305 8 8 31 29
51 45 43 36 54 73 38 128 -11 36 -10 41 14 67 26 28 33 68 17 94 -6 9 -3 21
10 34 10 12 19 30 19 42 0 22 -38 65 -56 65 -13 0 -54 -43 -54 -56 0 -5 -20
-31 -45 -57 -32 -35 -44 -54 -42 -74 2 -21 -6 -32 -30 -48 -51 -33 -66 -68
-59 -134 7 -58 -5 -101 -63 -241 -62 -146 -167 -418 -174 -446 -7 -31 15 -53
59 -58 54 -7 851 -7 894 -1 57 9 151 46 206 80 159 102 249 337 200 523 -32
117 -132 233 -236 273 -28 11 -83 22 -123 25 -144 10 -153 16 -197 107 -28 60
-94 151 -151 207 -43 42 -170 130 -189 130 -26 0 -17 25 24 65 39 37 46 50 46
82 0 99 -91 152 -180 105z m125 -37 c38 -37 35 -95 -6 -129 -17 -14 -36 -26
-44 -26 -11 0 -43 -58 -34 -63 2 -1 40 -20 84 -42 115 -58 234 -178 295 -298
25 -48 53 -95 63 -104 12 -12 48 -19 120 -24 122 -9 153 -18 218 -60 127 -81
193 -252 159 -412 -27 -134 -123 -268 -230 -322 -100 -51 -146 -55 -636 -55
l-452 0 136 342 c111 282 133 344 123 359 -14 24 -14 80 2 100 36 47 97 51
138 10 48 -49 30 -132 -33 -149 -31 -8 -35 -16 -150 -298 -65 -159 -118 -292
-118 -296 0 -5 175 -8 388 -8 356 0 395 2 467 20 136 35 208 94 269 220 28 59
31 74 31 165 0 112 -14 151 -81 225 -56 62 -112 83 -236 91 -144 8 -166 23
-233 150 -62 119 -174 235 -282 292 l-71 37 -10 -30 c-6 -16 -126 -315 -267
-664 -245 -607 -256 -636 -241 -658 30 -43 12 -98 -40 -123 -40 -19 -74 -12
-105 21 -44 47 -18 132 45 148 13 3 28 17 34 31 l12 25 -93 0 c-380 0 -625
124 -691 349 -30 103 -13 222 47 324 67 114 208 187 362 187 50 0 76 21 104
86 95 215 329 378 575 402 77 7 87 6 83 -7 -3 -9 -76 -189 -162 -401 -124
-307 -154 -389 -146 -402 6 -10 11 -33 11 -52 0 -43 -46 -86 -92 -86 -40 0
-88 48 -88 88 0 38 44 92 74 92 19 0 38 39 163 351 l142 350 -32 -6 c-218 -44
-399 -194 -488 -405 l-28 -65 -92 -7 c-214 -17 -319 -88 -366 -247 -57 -198
73 -383 316 -450 79 -22 295 -45 375 -39 l49 3 268 664 c249 616 267 665 254
684 -22 32 -18 72 11 106 34 41 92 44 129 6z m13 -509 c-2 -13 -10 -21 -23
-21 -23 0 -33 34 -14 45 20 13 40 -1 37 -24z m-28 -97 c15 -28 -11 -69 -45
-69 -45 0 -70 47 -42 82 26 33 66 27 87 -13z m-696 -555 c9 -8 16 -22 16 -30
0 -55 -66 -75 -96 -29 -15 23 -15 27 0 50 19 29 56 33 80 9z m-66 -148 c-2
-13 -10 -21 -23 -21 -23 0 -33 34 -14 45 20 13 40 -1 37 -24z"/>
</g>
</svg>
